<?xml version="1.0" encoding="iso-8859-1"?>
<!-- Uploaded to: SVG Repo, www.svgrepo.com, Generator: SVG Repo Mixer Tools -->
<svg fill="#000000" height="800px" width="800px" version="1.1" id="Layer_1" xmlns="http://www.w3.org/2000/svg" xmlns:xlink="http://www.w3.org/1999/xlink" 
	 viewBox="0 0 512 512" xml:space="preserve">
<g>
	<g>
		<path d="M490.667,149.333c-10.752,0-19.477-9.579-19.477-21.333c0-11.776-9.536-21.333-21.333-21.333H62.144
			c-11.797,0-21.333,9.557-21.333,21.333c0,11.755-8.725,21.333-19.477,21.333C9.536,149.333,0,158.891,0,170.667v170.667
			c0,11.776,9.536,21.333,21.333,21.333c10.752,0,19.477,9.579,19.477,21.333c0,11.776,9.536,21.333,21.333,21.333h387.712
			c11.797,0,21.333-9.557,21.333-21.333c0-11.755,8.725-21.333,19.477-21.333c11.797,0,21.333-9.557,21.333-21.333V170.667
			C512,158.891,502.464,149.333,490.667,149.333z M106.667,192h42.667c11.797,0,21.333,9.557,21.333,21.333
			s-9.536,21.333-21.333,21.333h-42.667c-11.797,0-21.333-9.557-21.333-21.333S94.869,192,106.667,192z M256,320H106.667
			c-11.797,0-21.333-9.557-21.333-21.333s9.536-21.333,21.333-21.333H256c11.797,0,21.333,9.557,21.333,21.333S267.797,320,256,320z
			 M405.333,320h-64C329.536,320,320,310.443,320,298.667s9.536-21.333,21.333-21.333h64c11.797,0,21.333,9.557,21.333,21.333
			S417.131,320,405.333,320z M405.333,234.667H234.667c-11.797,0-21.333-9.557-21.333-21.333S222.869,192,234.667,192h170.667
			c11.797,0,21.333,9.557,21.333,21.333S417.131,234.667,405.333,234.667z"/>
	</g>
</g>
</svg>